<svg xmlns="http://www.w3.org/2000/svg" xmlns:xlink="http://www.w3.org/1999/xlink" width="14.018" height="15.68" viewBox="0 0 14.018 15.68"><defs><clipPath id="a"><rect width="14.018" height="15.68" transform="translate(0 0)" fill="#384444"/></clipPath></defs><g transform="translate(0 0)"><g transform="translate(0 0)" clip-path="url(#a)"><path d="M12.506,3.309H8.241a.667.667,0,0,1-.667-.667V.667A.667.667,0,0,1,8.241,0h4.265a.667.667,0,0,1,.667.667V2.642a.667.667,0,0,1-.667.667m-3.6-1.334h2.931V1.334H8.908Z" transform="translate(-3.364 0)" fill="#384444"/><path d="M11.361,17.26H4.81a2.39,2.39,0,0,1-2.387-2.387V4.222a.667.667,0,0,1,.667-.667h9.991a.667.667,0,0,1,.668.667V14.873a2.39,2.39,0,0,1-2.387,2.387M3.757,4.889v9.984A1.054,1.054,0,0,0,4.81,15.925h6.551a1.053,1.053,0,0,0,1.053-1.053V4.889Z" transform="translate(-1.076 -1.579)" fill="#384444"/><path d="M13.351,4.889H.668a.667.667,0,1,1,0-1.334H13.351a.667.667,0,0,1,0,1.334" transform="translate(0 -1.579)" fill="#384444"/><path d="M16.436,16.089a.667.667,0,0,1-.667-.667V10.469a.667.667,0,0,1,1.334,0v4.953a.667.667,0,0,1-.667.667" transform="translate(-7.005 -4.354)" fill="#384444"/><path d="M12.078,16.089a.667.667,0,0,1-.667-.667V10.469a.667.667,0,0,1,1.334,0v4.953a.667.667,0,0,1-.667.667" transform="translate(-5.069 -4.354)" fill="#384444"/><path d="M7.72,16.089a.667.667,0,0,1-.667-.667V10.469a.667.667,0,1,1,1.334,0v4.953a.667.667,0,0,1-.667.667" transform="translate(-3.133 -4.354)" fill="#384444"/></g></g></svg>