<svg xmlns="http://www.w3.org/2000/svg" width="15.19" height="15.191" viewBox="0 0 15.19 15.191"><g transform="translate(-1518.013 -346.684)"><g transform="translate(1518.013 346.684)"><path d="M26.844,4.551a.692.692,0,0,1-.491-.2L23.191,1.185A.694.694,0,0,1,24.173.2l3.162,3.162a.694.694,0,0,1-.491,1.185" transform="translate(-12.348 0.001)" fill="#fff"/><path d="M.694,17.3a.694.694,0,0,1-.687-.795l.541-3.7a.7.7,0,0,1,.2-.391L9.025,4.132a.694.694,0,0,1,.982,0l3.162,3.163a.694.694,0,0,1,0,.982L4.887,16.558a.7.7,0,0,1-.391.2l-3.7.54a.672.672,0,0,1-.1.007m3.7-1.234h0ZM1.889,13.233l-.373,2.553,2.552-.373L11.7,7.785,9.516,5.6Z" transform="translate(0 -2.11)" fill="#fff"/></g></g></svg>