<svg xmlns="http://www.w3.org/2000/svg" xmlns:xlink="http://www.w3.org/1999/xlink" width="12.064" height="21.135" viewBox="0 0 12.064 21.135"><defs><clipPath id="a"><rect width="12.064" height="21.135" fill="#fff"/></clipPath></defs><g clip-path="url(#a)"><path d="M38.039,151.741a.518.518,0,0,1-.511-.512c0-.194-.009-.416-.018-.651-.043-1.1-.1-2.474.6-3.2a1.662,1.662,0,0,1,1.252-.475.545.545,0,0,1,.11.011,1.918,1.918,0,0,1,1.723,2.075v2.238a.518.518,0,0,1-.511.512Zm2.13-1.023V149.4c0-.835-.051-1.43-.813-1.475a.717.717,0,0,0-.534.188,1.9,1.9,0,0,0-.272,1.274v1.327Z" transform="translate(-33.328 -130.606)" fill="#fff"/><path d="M11.5,21.121a.489.489,0,0,1-.512-.5V17.1L8.028,14.85,7.966,14.8a.784.784,0,0,1-.384-.526,2.4,2.4,0,0,1-.009-.493c0-.076.008-.15.008-.221V12.087h-3.1v1.526c0,.065,0,.135.008.206a1.839,1.839,0,0,1-.018.52A.794.794,0,0,1,4.1,14.8l-.068.05L1.074,17.1v3.527A.477.477,0,0,1,.91,21a.532.532,0,0,1-.348.123.489.489,0,0,1-.512-.5V18.4c0-.115-.011-.258-.022-.41-.041-.55-.093-1.235.263-1.573a10.248,10.248,0,0,1,1.17-.91c.194-.136.395-.278.581-.419L3.461,14.01V9.5A2.325,2.325,0,0,1,3.7,8.258l1.82-3.519V2.646H4.5a.489.489,0,0,1-.5-.511.489.489,0,0,1,.5-.512H5.521V.5A.512.512,0,0,1,6.543.5V1.623H7.56a.477.477,0,0,1,.374.164.532.532,0,0,1,.123.347.489.489,0,0,1-.5.512H6.543V4.739l1.82,3.519a2.431,2.431,0,0,1,.24,1.3V14.01l1.418,1.075c.186.141.387.282.582.418a9.6,9.6,0,0,1,1.17.911c.354.341.3,1.023.262,1.571-.011.152-.022.3-.022.411v2.227a.489.489,0,0,1-.511.5M7.58,11.065V9.553c0-.055,0-.11,0-.165,0-.114-.006-.232,0-.349,0-.011,0-.035,0-.062v0a1.778,1.778,0,0,1-.107-.2c-.016-.034-.032-.068-.048-.1l-1.394-2.7-1.394,2.7c-.017.032-.033.065-.049.1-.025.051-.05.1-.078.154a2.231,2.231,0,0,1-.013.5c-.007.072-.014.14-.014.178v1.46Z" transform="translate(0 0.001)" fill="#fff"/></g></svg>