<svg xmlns="http://www.w3.org/2000/svg" xmlns:xlink="http://www.w3.org/1999/xlink" width="103.169" height="99.553" viewBox="0 0 103.169 99.553"><defs><clipPath id="a"><rect width="103.169" height="99.553" fill="none"/></clipPath></defs><g transform="translate(2824 -648.447)"><g transform="translate(-2824 648.447)"><g clip-path="url(#a)"><path d="M96.439,41.068a13.4,13.4,0,0,1-3.958,9.53,2.624,2.624,0,0,1-.386.341,5.087,5.087,0,0,1-6.823-7.529l-4-4.026a10.759,10.759,0,0,0-.182,15.034A13.267,13.267,0,0,1,73.4,50.6a13.493,13.493,0,1,1,23.04-9.53" transform="translate(-24.718 -9.815)" fill="#fff"/><path d="M103.745,38.052A15.644,15.644,0,0,0,81.318,52.108H75.633A21.336,21.336,0,0,1,96.944,30.819a22.709,22.709,0,0,1,4.663.5A49.77,49.77,0,0,0,26.095,9.53a12.347,12.347,0,0,1,1.774,4.663A13.035,13.035,0,0,1,8.876,31.979a49.254,49.254,0,0,0-3.3,17.809A49.833,49.833,0,0,0,61.235,99.212a14.92,14.92,0,0,1-2.57-8.37,14.384,14.384,0,0,1,.978-5.277A14.705,14.705,0,0,1,52,75.649c-7.028.887-22.312,2.274-27.521-1.774a5.711,5.711,0,0,1-2.274-3.958c-.819-8.279,11.326-26.839,19.4-34.049a19.172,19.172,0,1,1,32.161,8.939c-.272.251-.546.5-.819.728a19.129,19.129,0,0,1-26.315-.728,18.605,18.605,0,0,1-2.662-3.366c-7.346,7.37-16.58,22.927-16.1,27.908,1.364,1.979,13.874,2.161,26.179.273l3.275-.5v3.321a9.093,9.093,0,0,0,6.982,8.848l3.98.978-2.32,3.389a9.139,9.139,0,0,0,1.82,12.327h.023a49.81,49.81,0,0,0,37.346-48.2,48.623,48.623,0,0,0-1.41-11.736" transform="translate(-1.985)" fill="#fff"/><path d="M26.088,18.281A13.018,13.018,0,0,1,8.347,30.427,12.962,12.962,0,0,1,0,18.281,13.033,13.033,0,0,1,24.109,11.39a12.338,12.338,0,0,1,1.774,4.662,12.128,12.128,0,0,1,.2,2.229" transform="translate(0 -1.86)" fill="#9ce5cf"/></g></g></g></svg>