<svg xmlns="http://www.w3.org/2000/svg" xmlns:xlink="http://www.w3.org/1999/xlink" width="15.559" height="17.677" viewBox="0 0 15.559 17.677"><defs><clipPath id="a"><rect width="15.559" height="17.677" fill="none"/></clipPath></defs><g transform="translate(0 0)"><g transform="translate(0 0)" clip-path="url(#a)"><path d="M9.726,17.677a.563.563,0,0,1-.562-.562V12.343H6.4v4.772a.563.563,0,0,1-.562.562H.562A.563.563,0,0,1,0,17.115V6.938a.563.563,0,0,1,.19-.422L7.407.141a.563.563,0,0,1,.745,0l7.217,6.375a.562.562,0,0,1,.19.422V17.115a.563.563,0,0,1-.562.562Zm4.708-1.125V7.191L7.78,1.313,1.125,7.191v9.361H5.27V11.78a.563.563,0,0,1,.562-.562H9.726a.563.563,0,0,1,.562.562v4.772Z" transform="translate(0 0)" fill="#fff"/></g></g></svg>