<svg xmlns="http://www.w3.org/2000/svg" width="17.303" height="15.553" viewBox="0 0 17.303 15.553"><g transform="translate(-7.762 37.469)"><g transform="translate(8.262 -36.969)"><path d="M6.817,6.292H2.534A1.535,1.535,0,0,0,1,7.826v9.529l2.285-3.315H9.952a1.535,1.535,0,0,0,1.534-1.534V10.55H8.351A1.534,1.534,0,0,1,6.817,9.017Z" transform="translate(-1 -2.802)" fill="none" stroke="#fff" stroke-linecap="round" stroke-linejoin="round" stroke-width="1"/><path d="M9.821,2.534V4.49h3.136a1.535,1.535,0,0,1,1.534,1.534V8.749h3.532l2.285,3.315V2.534A1.535,1.535,0,0,0,18.773,1H11.355A1.535,1.535,0,0,0,9.821,2.534Z" transform="translate(-4.004 -1)" fill="none" stroke="#fff" stroke-linecap="round" stroke-linejoin="round" stroke-width="1"/><path d="M9.821,6.292V9.017a1.534,1.534,0,0,0,1.534,1.534h3.136V7.826a1.535,1.535,0,0,0-1.534-1.534Z" transform="translate(-4.004 -2.802)" fill="none" stroke="#fff" stroke-linecap="round" stroke-linejoin="round" stroke-width="1"/></g></g></svg>