<svg xmlns="http://www.w3.org/2000/svg" width="17.303" height="17.645" viewBox="0 0 17.303 17.645"><path d="M14.81,11.628l-2.8-.894A2.569,2.569,0,0,1,10.22,8.286V8.1a2.347,2.347,0,0,0,1.428-2.16V2.848A2.347,2.347,0,0,0,9.3.5H8A2.348,2.348,0,0,0,5.655,2.848V5.938A2.348,2.348,0,0,0,7.083,8.1v.188a2.568,2.568,0,0,1-1.789,2.448l-2.8.894A2.862,2.862,0,0,0,.5,14.356v2.79H16.8v-2.79A2.862,2.862,0,0,0,14.81,11.628Z" fill="none" stroke="#fff" stroke-linecap="round" stroke-linejoin="round" stroke-width="1"/></svg>