<svg xmlns="http://www.w3.org/2000/svg" width="16.336" height="13.794" viewBox="0 0 16.336 13.794"><g transform="translate(-1470.956 -232.271)"><path d="M6.9,13.794a6.9,6.9,0,1,1,6.9-6.9,6.9,6.9,0,0,1-6.9,6.9m0-12.2a5.3,5.3,0,1,0,5.3,5.3,5.31,5.31,0,0,0-5.3-5.3" transform="translate(1470.956 232.271)" fill="#384444"/><path d="M94.419,83.329a.792.792,0,0,1-.442-.134l-3.726-2.489a.8.8,0,0,1,.885-1.325l3.725,2.489a.8.8,0,0,1-.443,1.459" transform="translate(1392.075 162.736)" fill="#384444"/></g></svg>